<svg width="280" height="290" viewBox="0 0 280 290" fill="none" xmlns="http://www.w3.org/2000/svg">
<path d="M63.5682 101.397L52.955 108.35L163.486 276.677L174.099 269.724L63.5682 101.397Z" fill="#E6E6E6"/>
<path d="M38.301 38.051L62.8566 75.4466C63.3321 76.1708 63.5001 77.054 63.3237 77.9019C63.1473 78.7498 62.6408 79.493 61.9158 79.968C61.1908 80.4429 60.3066 80.6108 59.4576 80.4345C58.6087 80.2583 57.8647 79.7525 57.3891 79.0283L29.1596 36.0376C25.3278 35.7179 21.4764 36.3497 17.9483 37.8767L48.7056 84.7169C49.1808 85.4411 49.3486 86.3241 49.1721 87.1719C48.9956 88.0196 48.4892 88.7626 47.7643 89.2374C47.0394 89.7123 46.1554 89.8802 45.3066 89.7041C44.4578 89.5281 43.7138 89.0225 43.2382 88.2986L12.4809 41.4584C9.673 44.0822 7.55831 47.3588 6.3251 50.9965L34.5547 93.9873C35.0299 94.7114 35.1976 95.5945 35.0211 96.4422C34.8446 97.2899 34.3382 98.0329 33.6134 98.5078C32.8885 98.9827 32.0044 99.1505 31.1557 98.9745C30.3069 98.7984 29.5629 98.2929 29.0872 97.569L4.5317 60.1734C3.90101 70.6002 7.30456 82.9587 14.7637 94.3183C28.6269 115.43 51.2405 125.093 65.2726 115.901C79.3047 106.708 79.4417 82.1416 65.5785 61.0294C58.1194 49.6698 48.127 41.6276 38.301 38.051Z" fill="#E6E6E6"/>
<path d="M111.154 78.3695H98.4615V279.672H111.154V78.3695Z" fill="#E6E6E6"/>
<path d="M104.615 91.4311C121.396 91.4311 135 70.9636 135 45.7156C135 20.4676 121.396 0 104.615 0C87.8344 0 74.2307 20.4676 74.2307 45.7156C74.2307 70.9636 87.8344 91.4311 104.615 91.4311Z" fill="#E6E6E6"/>
<path d="M104.5 78C116.374 78 126 63.4493 126 45.5C126 27.5507 116.374 13 104.5 13C92.6259 13 83 27.5507 83 45.5C83 63.4493 92.6259 78 104.5 78Z" fill="#CCCCCC"/>
<path d="M140 290C217.32 290 280 286.408 280 281.977C280 277.545 217.32 273.953 140 273.953C62.6801 273.953 0 277.545 0 281.977C0 286.408 62.6801 290 140 290Z" fill="#E6E6E6"/>
<path d="M222.795 281.859C170.329 272.413 116.594 272.413 64.1278 281.859C63.2944 282.01 62.438 281.976 61.619 281.76C60.8001 281.544 60.0385 281.151 59.3881 280.609C58.7377 280.068 58.2143 279.39 57.8548 278.624C57.4954 277.858 57.3086 277.022 57.3077 276.176V204.375H229.615V276.176C229.615 277.022 229.428 277.858 229.068 278.624C228.709 279.39 228.185 280.068 227.535 280.609C226.885 281.151 226.123 281.544 225.304 281.76C224.485 281.976 223.629 282.01 222.795 281.859Z" fill="#6C63FF"/>
<path d="M213.846 151.361C209.868 151.357 205.916 152.018 202.156 153.315C196.67 141.432 187.906 131.358 176.89 124.275C165.874 117.193 153.064 113.396 139.963 113.329C126.863 113.263 114.015 116.931 102.928 123.902C91.8409 130.873 82.9746 140.858 77.3695 152.685C71.8502 151.139 66.0397 150.94 60.4273 152.105C54.815 153.27 49.5652 155.766 45.1203 159.381C40.6753 162.996 37.1653 167.626 34.886 172.879C32.6067 178.133 31.6248 183.857 32.0231 189.568C32.4213 195.28 34.188 200.813 37.1744 205.7C40.1607 210.587 44.2793 214.686 49.183 217.651C54.0868 220.616 59.6322 222.361 65.3521 222.738C71.072 223.115 76.7988 222.113 82.0502 219.818C88.3619 229.424 96.9828 237.298 107.125 242.721C117.268 248.143 128.609 250.94 140.113 250.858C151.617 250.775 162.916 247.815 172.98 242.247C183.043 236.68 191.55 228.683 197.723 218.986C202.545 221.418 207.856 222.727 213.258 222.816C218.659 222.904 224.01 221.769 228.91 219.497C233.81 217.224 238.13 213.873 241.548 209.694C244.965 205.515 247.391 200.617 248.642 195.368C249.894 190.119 249.939 184.655 248.774 179.386C247.609 174.117 245.264 169.18 241.916 164.946C238.568 160.711 234.303 157.289 229.442 154.936C224.58 152.584 219.248 151.361 213.846 151.361Z" fill="#6C63FF"/>
<path d="M71.1539 182.094H70.3846C70.3584 171.865 72.625 161.759 77.0181 152.519L77.7133 152.848C73.369 161.985 71.1277 171.978 71.1539 182.094Z" fill="#3F3D56"/>
<path d="M208.846 182.094H208.077C208.101 172.212 205.962 162.443 201.81 153.473L202.509 153.151C206.707 162.222 208.87 172.1 208.846 182.094Z" fill="#3F3D56"/>
<path d="M57.4005 237.787L57.215 237.041C57.4321 236.987 79.2932 231.624 111.33 228.963C140.9 226.507 185.441 225.915 229.709 237.041L229.522 237.786C185.361 226.688 140.918 227.277 111.41 229.728C79.4304 232.383 57.617 237.733 57.4005 237.787Z" fill="#3F3D56"/>
<path d="M57.4005 248.159L57.215 247.413C57.4321 247.359 79.2932 241.997 111.33 239.336C140.9 236.88 185.441 236.287 229.709 247.413L229.522 248.159C185.361 237.06 140.918 237.651 111.41 240.1C79.4304 242.755 57.617 248.105 57.4005 248.159Z" fill="#3F3D56"/>
<path d="M57.4005 258.531L57.215 257.786C57.4321 257.732 79.2932 252.369 111.33 249.708C140.9 247.252 185.441 246.66 229.709 257.786L229.522 258.531C185.361 247.433 140.918 248.023 111.41 250.473C79.4304 253.128 57.617 258.478 57.4005 258.531Z" fill="#3F3D56"/>
<path d="M198.949 202.13L189.629 198.965L198.576 153.354L192.425 152.796C186.428 157.392 178.441 159.194 168.195 157.822L184.597 182.583L176.233 188.479L149.554 156.515C148.351 155.074 147.692 153.258 147.692 151.382C147.692 149.643 148.258 147.951 149.305 146.562C150.352 145.172 151.823 144.16 153.496 143.679L181.988 135.482L215.351 139.205C220.395 146.886 220.592 152.228 212.914 153.769L198.949 202.13Z" fill="#2F2E41"/>
<path d="M189.41 219.874C188.447 219.813 187.512 219.526 186.68 219.036C185.849 218.547 185.145 217.868 184.625 217.055C184.106 216.243 183.785 215.319 183.69 214.36C183.595 213.4 183.728 212.432 184.078 211.533L188.711 199.634C191.064 195.181 194.294 195.738 198.108 199.634L199.972 205.095C200.125 205.544 200.186 206.02 200.151 206.494C200.115 206.968 199.984 207.43 199.766 207.852L195.25 216.572C194.703 217.629 193.859 218.504 192.822 219.091C191.785 219.677 190.6 219.949 189.41 219.874Z" fill="#2F2E41"/>
<path d="M177.366 204.291C176.403 204.23 175.467 203.943 174.636 203.454C173.805 202.964 173.1 202.285 172.581 201.473C172.061 200.66 171.741 199.736 171.646 198.777C171.551 197.818 171.683 196.849 172.033 195.951L176.666 184.051C179.02 179.598 182.25 180.156 186.064 184.051L187.927 189.512C188.081 189.962 188.142 190.438 188.106 190.911C188.071 191.385 187.94 191.847 187.722 192.269L183.206 200.989C182.658 202.046 181.815 202.922 180.778 203.508C179.741 204.094 178.555 204.366 177.366 204.291Z" fill="#2F2E41"/>
<path d="M183.292 91.9185C189.057 91.9185 193.73 87.2508 193.73 81.493C193.73 75.7352 189.057 71.0676 183.292 71.0676C177.528 71.0676 172.855 75.7352 172.855 81.493C172.855 87.2508 177.528 91.9185 183.292 91.9185Z" fill="#C99999"/>
<path d="M199.508 96.2005L185.156 103.647L182.174 90.2429L192.052 84.0993L199.508 96.2005Z" fill="#C99999"/>
<path d="M216.842 141.067C202.521 136.747 189.527 134.508 180.124 137.902C183.365 128.794 177.382 114.886 170.804 100.668C173.643 96.9624 178.168 95.5269 183.292 94.8972C188.899 98.9633 192.808 96.3535 195.78 90.0568C202.262 89.7969 208.509 92.0897 214.605 96.0142C209.84 111.26 210.698 126.273 216.842 141.067Z" fill="#3F3D56"/>
<path d="M179.937 140.136C177.676 141.468 175.589 143.71 173.6 146.466C170.239 144.411 167.282 142.071 164.952 139.289C163.321 137.316 162.209 134.967 161.716 132.456C161.224 129.945 161.367 127.351 162.132 124.91L168.502 104.233C169.031 102.516 170.059 100.994 171.455 99.8614L172.296 99.1791L180.683 115.003L172.296 130.642C173.359 133.49 176.493 136.78 179.937 140.136Z" fill="#3F3D56"/>
<path d="M182.824 155.901C182.064 156.247 181.233 156.412 180.398 156.382C179.563 156.352 178.746 156.129 178.012 155.729C177.278 155.33 176.648 154.765 176.17 154.08C175.692 153.395 175.381 152.609 175.26 151.783L173.874 142.304L178.72 139.697L184.87 147.739C185.362 148.382 185.702 149.126 185.865 149.918C186.029 150.71 186.012 151.528 185.815 152.312C185.618 153.096 185.247 153.826 184.73 154.447C184.212 155.069 183.561 155.565 182.824 155.901Z" fill="#C99999"/>
<path d="M193.823 81.0368L192.041 81.0897L187.097 74.0951C180.763 74.7492 175.573 77.4981 171.18 81.7086L170.735 78.743C170.31 75.9149 170.986 73.0317 172.625 70.6866C174.263 68.3414 176.739 66.7126 179.544 66.1351H179.544C181.016 65.8318 182.535 65.828 184.01 66.1241C185.484 66.4201 186.884 67.0099 188.125 67.8582C189.366 68.7064 190.423 69.7958 191.233 71.0613C192.044 72.3267 192.59 73.7423 192.841 75.2234L193.823 81.0368Z" fill="#2F2E41"/>
<path d="M173.78 146.47C173.433 145.71 173.268 144.88 173.298 144.046C173.328 143.212 173.552 142.396 173.952 141.663C174.351 140.93 174.917 140.3 175.602 139.823C176.288 139.346 177.076 139.035 177.903 138.914L187.393 137.53L190.002 142.37L181.951 148.513C181.308 149.004 180.562 149.344 179.77 149.507C178.977 149.67 178.158 149.653 177.373 149.457C176.588 149.261 175.857 148.89 175.235 148.373C174.613 147.856 174.116 147.205 173.78 146.47Z" fill="#C99999"/>
<path d="M218.65 137.847C209.621 138.548 199.763 141.36 189.443 145.349C189.315 142.289 188.204 139.352 186.274 136.971C195.648 134.505 204.153 131.612 209.386 127.104L206.218 103.275L213.114 95.4557L214.304 96.0756C215.292 96.5883 216.161 97.3028 216.854 98.1726C217.548 99.0425 218.051 100.048 218.33 101.125C221.242 112.438 222.535 123.278 221.646 133.478C221.761 134.445 221.521 135.421 220.97 136.225C220.419 137.028 219.594 137.605 218.65 137.847Z" fill="#3F3D56"/>
<path d="M36.8792 279.715C28.4821 284.96 20.0851 284.958 11.688 279.708C11.4221 279.544 11.2063 279.311 11.0638 279.034C10.9213 278.756 10.8577 278.445 10.8798 278.134L13.4999 244.112H34.6924L37.6858 278.122C37.7117 278.436 37.65 278.751 37.5076 279.032C37.3652 279.313 37.1477 279.549 36.8792 279.715Z" fill="#3F3D56"/>
<path d="M23.9984 248.346C29.9046 248.346 34.6924 246.623 34.6924 244.497C34.6924 242.372 29.9046 240.648 23.9984 240.648C18.0923 240.648 13.3044 242.372 13.3044 244.497C13.3044 246.623 18.0923 248.346 23.9984 248.346Z" fill="#3F3D56"/>
<path d="M32.3805 243.198C26.8081 247.113 21.4136 247.113 16.1971 243.198V237.04H32.3805V243.198Z" fill="#6C63FF"/>
<path d="M24.2888 240.119C28.7577 240.119 32.3805 238.741 32.3805 237.04C32.3805 235.34 28.7577 233.961 24.2888 233.961C19.8199 233.961 16.1971 235.34 16.1971 237.04C16.1971 238.741 19.8199 240.119 24.2888 240.119Z" fill="#6C63FF"/>
<path d="M24.6742 237.04C25.0998 237.04 25.4448 236.868 25.4448 236.655C25.4448 236.443 25.0998 236.27 24.6742 236.27C24.2486 236.27 23.9036 236.443 23.9036 236.655C23.9036 236.868 24.2486 237.04 24.6742 237.04Z" fill="#E6E6E6"/>
<path d="M28.313 237.04C28.7386 237.04 29.0836 236.868 29.0836 236.655C29.0836 236.443 28.7386 236.27 28.313 236.27C27.8874 236.27 27.5424 236.443 27.5424 236.655C27.5424 236.868 27.8874 237.04 28.313 237.04Z" fill="#E6E6E6"/>
<path d="M26.4937 237.949C26.9193 237.949 27.2643 237.776 27.2643 237.564C27.2643 237.351 26.9193 237.179 26.4937 237.179C26.068 237.179 25.723 237.351 25.723 237.564C25.723 237.776 26.068 237.949 26.4937 237.949Z" fill="#E6E6E6"/>
<path d="M19.2158 237.949C19.6414 237.949 19.9865 237.776 19.9865 237.564C19.9865 237.351 19.6414 237.179 19.2158 237.179C18.7902 237.179 18.4452 237.351 18.4452 237.564C18.4452 237.776 18.7902 237.949 19.2158 237.949Z" fill="#E6E6E6"/>
<path d="M21.0353 237.04C21.4609 237.04 21.8059 236.868 21.8059 236.655C21.8059 236.443 21.4609 236.27 21.0353 236.27C20.6097 236.27 20.2646 236.443 20.2646 236.655C20.2646 236.868 20.6097 237.04 21.0353 237.04Z" fill="#E6E6E6"/>
<path d="M22.8547 238.403C23.2803 238.403 23.6254 238.231 23.6254 238.018C23.6254 237.806 23.2803 237.633 22.8547 237.633C22.4291 237.633 22.0841 237.806 22.0841 238.018C22.0841 238.231 22.4291 238.403 22.8547 238.403Z" fill="#E6E6E6"/>
<path d="M269.572 279.715C261.175 284.96 252.777 284.958 244.38 279.708C244.115 279.544 243.899 279.311 243.756 279.034C243.614 278.756 243.55 278.445 243.572 278.134L246.192 244.112H267.385L270.378 278.122C270.404 278.436 270.342 278.751 270.2 279.032C270.058 279.313 269.84 279.549 269.572 279.715Z" fill="#3F3D56"/>
<path d="M256.691 248.346C262.597 248.346 267.385 246.623 267.385 244.497C267.385 242.372 262.597 240.648 256.691 240.648C250.785 240.648 245.997 242.372 245.997 244.497C245.997 246.623 250.785 248.346 256.691 248.346Z" fill="#3F3D56"/>
<path d="M265.073 243.198C259.5 247.113 254.106 247.113 248.89 243.198V237.04H265.073V243.198Z" fill="#6C63FF"/>
<path d="M256.981 240.119C261.45 240.119 265.073 238.741 265.073 237.04C265.073 235.34 261.45 233.961 256.981 233.961C252.512 233.961 248.89 235.34 248.89 237.04C248.89 238.741 252.512 240.119 256.981 240.119Z" fill="#6C63FF"/>
<path d="M257.367 237.04C257.792 237.04 258.137 236.868 258.137 236.655C258.137 236.443 257.792 236.27 257.367 236.27C256.941 236.27 256.596 236.443 256.596 236.655C256.596 236.868 256.941 237.04 257.367 237.04Z" fill="#E6E6E6"/>
<path d="M261.005 237.04C261.431 237.04 261.776 236.868 261.776 236.655C261.776 236.443 261.431 236.27 261.005 236.27C260.58 236.27 260.235 236.443 260.235 236.655C260.235 236.868 260.58 237.04 261.005 237.04Z" fill="#E6E6E6"/>
<path d="M259.186 237.949C259.612 237.949 259.957 237.776 259.957 237.564C259.957 237.351 259.612 237.179 259.186 237.179C258.76 237.179 258.415 237.351 258.415 237.564C258.415 237.776 258.76 237.949 259.186 237.949Z" fill="#E6E6E6"/>
<path d="M251.908 237.949C252.334 237.949 252.679 237.776 252.679 237.564C252.679 237.351 252.334 237.179 251.908 237.179C251.483 237.179 251.138 237.351 251.138 237.564C251.138 237.776 251.483 237.949 251.908 237.949Z" fill="#E6E6E6"/>
<path d="M253.728 237.04C254.153 237.04 254.498 236.868 254.498 236.655C254.498 236.443 254.153 236.27 253.728 236.27C253.302 236.27 252.957 236.443 252.957 236.655C252.957 236.868 253.302 237.04 253.728 237.04Z" fill="#E6E6E6"/>
<path d="M255.547 238.403C255.973 238.403 256.318 238.231 256.318 238.018C256.318 237.806 255.973 237.633 255.547 237.633C255.121 237.633 254.776 237.806 254.776 238.018C254.776 238.231 255.121 238.403 255.547 238.403Z" fill="#E6E6E6"/>
</svg>
