<svg width="40" height="40" viewBox="0 0 40 40" fill="none" xmlns="http://www.w3.org/2000/svg">
<circle cx="20" cy="20" r="20" fill="#6C63FF"/>
<path d="M26.4099 25.832V29H13.7139V26.48L20.1939 20.36C20.8819 19.704 21.3459 19.144 21.5859 18.68C21.8259 18.2 21.9459 17.728 21.9459 17.264C21.9459 16.592 21.7139 16.08 21.2499 15.728C20.8019 15.36 20.1379 15.176 19.2579 15.176C18.5219 15.176 17.8579 15.32 17.2659 15.608C16.6739 15.88 16.1779 16.296 15.7779 16.856L12.9459 15.032C13.6019 14.056 14.5059 13.296 15.6579 12.752C16.8099 12.192 18.1299 11.912 19.6179 11.912C20.8659 11.912 21.9539 12.12 22.8819 12.536C23.8259 12.936 24.5539 13.512 25.0659 14.264C25.5939 15 25.8579 15.872 25.8579 16.88C25.8579 17.792 25.6659 18.648 25.2819 19.448C24.8979 20.248 24.1539 21.16 23.0499 22.184L19.1859 25.832H26.4099Z" fill="white"/>
</svg>
