<svg width="29" height="13" viewBox="0 0 29 13" fill="none" xmlns="http://www.w3.org/2000/svg">
<path d="M7.75 10.18V12H0.162V2.2H7.568V4.02H2.416V6.148H6.966V7.912H2.416V10.18H7.75ZM17.2979 1.612V12H15.2119V11.132C14.6706 11.7853 13.8866 12.112 12.8599 12.112C12.1506 12.112 11.5066 11.9533 10.9279 11.636C10.3586 11.3187 9.91056 10.866 9.58389 10.278C9.25722 9.69 9.09389 9.00867 9.09389 8.234C9.09389 7.45933 9.25722 6.778 9.58389 6.19C9.91056 5.602 10.3586 5.14933 10.9279 4.832C11.5066 4.51467 12.1506 4.356 12.8599 4.356C13.8212 4.356 14.5726 4.65933 15.1139 5.266V1.612H17.2979ZM13.2379 10.32C13.7886 10.32 14.2459 10.1333 14.6099 9.76C14.9739 9.37733 15.1559 8.86867 15.1559 8.234C15.1559 7.59933 14.9739 7.09533 14.6099 6.722C14.2459 6.33933 13.7886 6.148 13.2379 6.148C12.6779 6.148 12.2159 6.33933 11.8519 6.722C11.4879 7.09533 11.3059 7.59933 11.3059 8.234C11.3059 8.86867 11.4879 9.37733 11.8519 9.76C12.2159 10.1333 12.6779 10.32 13.2379 10.32ZM19.5992 4.468H21.7832V12H19.5992V4.468ZM20.6912 3.418C20.2899 3.418 19.9632 3.30133 19.7112 3.068C19.4592 2.83467 19.3332 2.54533 19.3332 2.2C19.3332 1.85467 19.4592 1.56533 19.7112 1.332C19.9632 1.09867 20.2899 0.981999 20.6912 0.981999C21.0926 0.981999 21.4192 1.094 21.6712 1.318C21.9232 1.542 22.0492 1.822 22.0492 2.158C22.0492 2.522 21.9232 2.82533 21.6712 3.068C21.4192 3.30133 21.0926 3.418 20.6912 3.418ZM28.9482 11.636C28.7335 11.7947 28.4675 11.916 28.1502 12C27.8422 12.0747 27.5155 12.112 27.1702 12.112C26.2742 12.112 25.5789 11.8833 25.0842 11.426C24.5989 10.9687 24.3562 10.2967 24.3562 9.41V6.316H23.1942V4.636H24.3562V2.802H26.5402V4.636H28.4162V6.316H26.5402V9.382C26.5402 9.69933 26.6195 9.94667 26.7782 10.124C26.9462 10.292 27.1795 10.376 27.4782 10.376C27.8235 10.376 28.1175 10.2827 28.3602 10.096L28.9482 11.636Z" fill="#6C63FF"/>
</svg>
