<svg width="14" height="16" viewBox="0 0 14 16" fill="none" xmlns="http://www.w3.org/2000/svg">
<path d="M6.96875 0.5C6.875 -0.15625 5.5625 -0.15625 5.46875 0.53125V4.9375C5.4375 5.03125 5 5.03125 4.96875 4.9375C4.9375 4.15625 4.75 0.59375 4.71875 0.5C4.625 -0.15625 3.34375 -0.15625 3.25 0.5C3.21875 0.59375 3.03125 4.15625 3 4.9375C2.96875 5.03125 2.53125 5.03125 2.5 4.9375V0.53125C2.40625 -0.15625 1.09375 -0.15625 1 0.5C0.96875 0.625 0.5 3.4375 0.5 4.5C0.5 6.15625 1.34375 7.3125 2.625 7.78125L2.25 15.2188C2.21875 15.6562 2.5625 16 3 16H5C5.40625 16 5.75 15.6562 5.75 15.2188L5.34375 7.78125C6.625 7.3125 7.5 6.15625 7.5 4.5C7.5 3.4375 7 0.625 6.96875 0.5ZM10.7188 9.40625L10.25 15.1875C10.1875 15.625 10.5625 16 11 16H12.75C13.1562 16 13.5 15.6875 13.5 15.25V0.75C13.5 0.34375 13.1562 0 12.75 0C10.1562 0 5.8125 5.59375 10.7188 9.40625Z" fill="#4F4F4F"/>
</svg>
