<svg width="17" height="16" viewBox="0 0 17 16" fill="none" xmlns="http://www.w3.org/2000/svg">
<path d="M14 1C13.4375 1.03125 12.625 1.28125 12.1875 1.625C11.4375 0.65625 10.3125 0 9 0C7.6875 0 6.53125 0.65625 5.78125 1.625C5.34375 1.28125 4.53125 1 3.96875 1C2.3125 1 0.96875 2.34375 0.96875 4C0.96875 4 0.96875 4 1 4C1 5.3125 3 10 3 10H4.875L4.5 5.3125C4.46875 5.3125 4.46875 5.28125 4.46875 5.28125C4.46875 5.15625 4.59375 5.03125 4.71875 5.03125L5.21875 5C5.375 5 5.46875 5.09375 5.46875 5.21875L5.875 10H8.46875V5.25C8.46875 5.125 8.5625 5 8.71875 5H9.21875C9.34375 5 9.46875 5.125 9.46875 5.25V10H12.0938L12.5 5.21875C12.5 5.09375 12.5938 5 12.75 5L13.25 5.03125C13.375 5.03125 13.5 5.15625 13.5 5.28125V5.3125L13.0938 10H15C15 10 17 5.3125 17 4C17 2.375 15.625 1 14 1ZM3 15C3 15.5625 3.4375 16 4 16H14C14.5312 16 15 15.5625 15 15V11H3V15Z" fill="#4F4F4F"/>
</svg>
