<svg width="144" height="54" viewBox="0 0 144 54" fill="none" xmlns="http://www.w3.org/2000/svg">
<path d="M68.9595 17.9521C67.6083 17.9521 66.2978 17.7703 65.028 17.4066C63.7745 17.0264 62.7651 16.5388 62 15.9437L63.3431 12.9186C64.0756 13.4641 64.9466 13.9021 65.9559 14.2328C66.9652 14.5634 67.9746 14.7287 68.9839 14.7287C70.1072 14.7287 70.9374 14.5634 71.4746 14.2328C72.0119 13.8856 72.2805 13.431 72.2805 12.869C72.2805 12.4557 72.1177 12.1169 71.7921 11.8524C71.4828 11.5713 71.0758 11.3482 70.5711 11.1829C70.0828 11.0176 69.4153 10.8357 68.5688 10.6374C67.2664 10.3233 66.2001 10.0092 65.3698 9.69514C64.5396 9.38106 63.8233 8.87688 63.221 8.18259C62.6349 7.48831 62.3419 6.56261 62.3419 5.40547C62.3419 4.39711 62.6105 3.48793 63.1477 2.67794C63.6849 1.85141 64.4908 1.19846 65.5652 0.719076C66.6559 0.239692 67.9827 0 69.5455 0C70.6363 0 71.7026 0.132243 72.7444 0.396731C73.7863 0.661219 74.698 1.04142 75.4794 1.53734L74.2584 4.58721C72.6793 3.67804 71.1002 3.22345 69.5211 3.22345C68.4141 3.22345 67.592 3.40528 67.0548 3.76895C66.5338 4.13262 66.2734 4.61201 66.2734 5.20711C66.2734 5.8022 66.5745 6.24853 67.1769 6.54608C67.7955 6.82709 68.7316 7.10811 69.9851 7.38913C71.2874 7.70321 72.3537 8.01729 73.184 8.33137C74.0142 8.64545 74.7224 9.14136 75.3085 9.81911C75.9108 10.4969 76.212 11.4143 76.212 12.5714C76.212 13.5633 75.9352 14.4724 75.3817 15.299C74.8445 16.109 74.0305 16.7537 72.9398 17.233C71.8491 17.7124 70.5223 17.9521 68.9595 17.9521Z" fill="#3F3D56"/>
<path d="M95.9597 4.11609C97.6039 4.11609 98.9062 4.61201 99.8667 5.60384C100.843 6.57914 101.332 8.05035 101.332 10.0175V17.6546H97.5225V10.6126C97.5225 9.55463 97.3027 8.76943 96.8632 8.25698C96.4399 7.72801 95.8294 7.46352 95.0317 7.46352C94.1364 7.46352 93.4282 7.76107 92.9073 8.35616C92.3863 8.93473 92.1258 9.80258 92.1258 10.9597V17.6546H88.3164V10.6126C88.3164 8.5132 87.4862 7.46352 85.8257 7.46352C84.9466 7.46352 84.2466 7.76107 83.7256 8.35616C83.2047 8.93473 82.9442 9.80258 82.9442 10.9597V17.6546H79.1348V4.31446H82.7733V5.8518C83.2617 5.28976 83.8559 4.85997 84.5559 4.56242C85.2722 4.26487 86.0536 4.11609 86.9001 4.11609C87.8281 4.11609 88.6665 4.30619 89.4153 4.6864C90.1642 5.05007 90.7665 5.58731 91.2223 6.29812C91.7595 5.60384 92.4351 5.0666 93.2491 4.6864C94.0794 4.30619 94.9829 4.11609 95.9597 4.11609Z" fill="#3F3D56"/>
<path d="M110.534 4.11609C112.569 4.11609 114.131 4.61201 115.222 5.60384C116.313 6.57914 116.858 8.05862 116.858 10.0423V17.6546H113.293V15.9933C112.577 17.233 111.242 17.8529 109.288 17.8529C108.279 17.8529 107.4 17.6794 106.651 17.3322C105.918 16.9851 105.357 16.5057 104.966 15.8941C104.575 15.2824 104.38 14.5882 104.38 13.8112C104.38 12.5714 104.836 11.5961 105.748 10.8853C106.675 10.1745 108.1 9.81911 110.021 9.81911H113.049C113.049 8.97606 112.797 8.33137 112.292 7.88505C111.787 7.42219 111.03 7.19076 110.021 7.19076C109.321 7.19076 108.629 7.30648 107.945 7.5379C107.278 7.7528 106.708 8.05035 106.236 8.43055L104.868 5.72782C105.585 5.21537 106.439 4.81864 107.432 4.53762C108.442 4.2566 109.476 4.11609 110.534 4.11609ZM110.241 15.2494C110.892 15.2494 111.47 15.1006 111.974 14.8031C112.479 14.489 112.837 14.0344 113.049 13.4393V12.0755H110.436C108.873 12.0755 108.092 12.5962 108.092 13.6377C108.092 14.1336 108.279 14.5303 108.653 14.8279C109.044 15.1089 109.573 15.2494 110.241 15.2494Z" fill="#3F3D56"/>
<path d="M124.433 6.07496C124.889 5.43027 125.499 4.94262 126.264 4.61201C127.046 4.2814 127.941 4.11609 128.95 4.11609V7.68668C128.527 7.65362 128.242 7.63709 128.096 7.63709C127.005 7.63709 126.15 7.95117 125.532 8.57933C124.913 9.19096 124.604 10.1167 124.604 11.3565V17.6546H120.794V4.31446H124.433V6.07496Z" fill="#3F3D56"/>
<path d="M140.63 17.0099C140.256 17.2909 139.792 17.5058 139.238 17.6546C138.701 17.7868 138.131 17.8529 137.529 17.8529C135.966 17.8529 134.753 17.4479 133.891 16.6379C133.044 15.8279 132.621 14.6378 132.621 13.0674V7.5875H130.594V4.61201H132.621V1.36377H136.43V4.61201H139.702V7.5875H136.43V13.0178C136.43 13.5798 136.569 14.0179 136.845 14.3319C137.138 14.6295 137.545 14.7783 138.066 14.7783C138.669 14.7783 139.181 14.613 139.605 14.2823L140.63 17.0099Z" fill="#3F3D56"/>
<path d="M74.9255 54C72.603 54 70.4975 53.4931 68.6091 52.4792C66.7424 51.4433 65.2664 50.0217 64.1811 48.2143C63.1175 46.385 62.5857 44.3242 62.5857 42.0319C62.5857 39.7397 63.1175 37.6899 64.1811 35.8826C65.2664 34.0532 66.7424 32.6316 68.6091 31.6177C70.4975 30.5818 72.6138 30.0639 74.9581 30.0639C76.9333 30.0639 78.7132 30.4165 80.2977 31.1218C81.904 31.8271 83.2498 32.841 84.335 34.1634L80.9489 37.3373C79.4078 35.5299 77.4977 34.6263 75.2186 34.6263C73.8077 34.6263 72.5487 34.9459 71.4417 35.585C70.3347 36.2022 69.4665 37.0728 68.837 38.1969C68.2292 39.3209 67.9254 40.5993 67.9254 42.0319C67.9254 43.4646 68.2292 44.7429 68.837 45.867C69.4665 46.9911 70.3347 47.8727 71.4417 48.5119C72.5487 49.129 73.8077 49.4376 75.2186 49.4376C77.4977 49.4376 79.4078 48.5229 80.9489 46.6935L84.335 49.8674C83.2498 51.2119 81.904 52.2368 80.2977 52.9421C78.6915 53.6474 76.9008 54 74.9255 54Z" fill="#3F3D56"/>
<path d="M98.8367 35.552C101.007 35.552 102.755 36.2132 104.079 37.5356C105.424 38.8581 106.097 40.8197 106.097 43.4205V53.6033H101.018V44.214C101.018 42.8034 100.714 41.7564 100.107 41.0732C99.4988 40.3679 98.6197 40.0152 97.4693 40.0152C96.1886 40.0152 95.1684 40.423 94.4087 41.2385C93.649 42.0319 93.2692 43.2221 93.2692 44.8091V53.6033H88.19V29.072H93.2692V37.6679C93.942 36.9846 94.756 36.4667 95.7111 36.114C96.6661 35.7393 97.708 35.552 98.8367 35.552Z" fill="#3F3D56"/>
<path d="M128.702 44.776C128.702 44.8421 128.669 45.305 128.604 46.1646H115.353C115.592 47.2666 116.156 48.1372 117.046 48.7764C117.936 49.4156 119.043 49.7351 120.367 49.7351C121.278 49.7351 122.082 49.6029 122.776 49.3384C123.492 49.0519 124.155 48.6111 124.762 48.016L127.465 50.9915C125.815 52.909 123.406 53.8678 120.237 53.8678C118.261 53.8678 116.514 53.4821 114.995 52.7106C113.475 51.9172 112.303 50.8262 111.478 49.4376C110.653 48.049 110.241 46.4731 110.241 44.7099C110.241 42.9687 110.643 41.4038 111.446 40.0152C112.271 38.6046 113.388 37.5136 114.799 36.7422C116.232 35.9487 117.827 35.552 119.585 35.552C121.3 35.552 122.852 35.9267 124.241 36.6761C125.631 37.4254 126.716 38.5054 127.497 39.916C128.3 41.3046 128.702 42.9246 128.702 44.776ZM119.618 39.4532C118.468 39.4532 117.502 39.7838 116.72 40.445C115.939 41.1062 115.461 42.0099 115.288 43.156H123.916C123.742 42.0319 123.265 41.1393 122.483 40.4781C121.702 39.7948 120.747 39.4532 119.618 39.4532Z" fill="#3F3D56"/>
<path d="M138.302 36.2132H142.795V40.1805H138.432V53.6033H133.353V40.1805H130.651V36.2132H133.353V35.4197C133.353 33.392 133.939 31.783 135.111 30.5928C136.305 29.4026 137.977 28.8075 140.126 28.8075C140.885 28.8075 141.602 28.8957 142.274 29.072C142.969 29.2263 143.544 29.4577 144 29.7663L142.665 33.5022C142.079 33.0834 141.395 32.874 140.614 32.874C139.073 32.874 138.302 33.7336 138.302 35.4528V36.2132Z" fill="#3F3D56"/>
<path d="M43.8947 3.375C42 3.48047 39.2632 4.32422 37.7895 5.48438C35.2632 2.21484 31.4737 0 27.0526 0C22.6316 0 18.7368 2.21484 16.2105 5.48438C14.7368 4.32422 12 3.375 10.1053 3.375C4.52632 3.375 0 7.91016 0 13.5C0 13.5 0 13.5 0.105263 13.5C0.105263 17.9297 6.84211 33.75 6.84211 33.75H13.1579L11.8947 17.9297C11.7895 17.9297 11.7895 17.8242 11.7895 17.8242C11.7895 17.4023 12.2105 16.9805 12.6316 16.9805L14.3158 16.875C14.8421 16.875 15.1579 17.1914 15.1579 17.6133L16.5263 33.75H25.2632V17.7188C25.2632 17.2969 25.5789 16.875 26.1053 16.875H27.7895C28.2105 16.875 28.6316 17.2969 28.6316 17.7188V33.75H37.4737L38.8421 17.6133C38.8421 17.1914 39.1579 16.875 39.6842 16.875L41.3684 16.9805C41.7895 16.9805 42.2105 17.4023 42.2105 17.8242V17.9297L40.8421 33.75H47.2632C47.2632 33.75 54 17.9297 54 13.5C54 8.01562 49.3684 3.375 43.8947 3.375ZM6.84211 50.625C6.84211 52.5234 8.31579 54 10.2105 54H43.8947C45.6842 54 47.2632 52.5234 47.2632 50.625V37.125H6.84211V50.625Z" fill="#6C63FF"/>
</svg>
