<svg width="40" height="40" viewBox="0 0 40 40" fill="none" xmlns="http://www.w3.org/2000/svg">
<circle cx="20" cy="20" r="19.5" fill="white" stroke="#CDCAFF"/>
<path d="M21.6824 19.04C23.1544 19.28 24.2824 19.832 25.0664 20.696C25.8504 21.544 26.2424 22.6 26.2424 23.864C26.2424 24.84 25.9864 25.744 25.4744 26.576C24.9624 27.392 24.1784 28.048 23.1224 28.544C22.0824 29.04 20.8024 29.288 19.2824 29.288C18.0984 29.288 16.9304 29.136 15.7784 28.832C14.6424 28.512 13.6744 28.064 12.8744 27.488L14.3864 24.512C15.0264 24.992 15.7624 25.368 16.5944 25.64C17.4424 25.896 18.3064 26.024 19.1864 26.024C20.1624 26.024 20.9304 25.84 21.4904 25.472C22.0504 25.088 22.3304 24.552 22.3304 23.864C22.3304 22.488 21.2824 21.8 19.1864 21.8H17.4104V19.232L20.8664 15.32H13.7144V12.2H25.4744V14.72L21.6824 19.04Z" fill="#524AB2"/>
</svg>
