<svg width="24" height="22" viewBox="0 0 24 22" fill="none" xmlns="http://www.w3.org/2000/svg">
<path d="M21.75 11H19.5L15 14L10.5 11H2.25C0.984375 11 0 12.0312 0 13.25C0 14.5156 0.984375 15.5 2.25 15.5H21.75C22.9688 15.5 24 14.5156 24 13.25C24 12.0312 22.9688 11 21.75 11ZM2.71875 9.5H21.2344C22.8281 9.5 23.7656 7.48438 22.875 5.98438C21 2.9375 16.8281 0.546875 12 0.5C7.125 0.546875 3 2.9375 1.07812 5.98438C0.1875 7.48438 1.125 9.5 2.71875 9.5ZM18 4.25C18.375 4.25 18.75 4.625 18.75 5C18.75 5.42188 18.375 5.75 18 5.75C17.5781 5.75 17.25 5.42188 17.25 5C17.25 4.625 17.5781 4.25 18 4.25ZM12 2.75C12.375 2.75 12.75 3.125 12.75 3.5C12.75 3.92188 12.375 4.25 12 4.25C11.5781 4.25 11.25 3.92188 11.25 3.5C11.25 3.125 11.5781 2.75 12 2.75ZM6 4.25C6.375 4.25 6.75 4.625 6.75 5C6.75 5.42188 6.375 5.75 6 5.75C5.57812 5.75 5.25 5.42188 5.25 5C5.25 4.625 5.57812 4.25 6 4.25ZM22.5 17H1.5C1.07812 17 0.75 17.375 0.75 17.75V18.5C0.75 20.1875 2.0625 21.5 3.75 21.5H20.25C21.8906 21.5 23.2031 20.1875 23.25 18.5V17.75C23.25 17.375 22.875 17 22.5 17Z" fill="#4F4F4F"/>
</svg>
