<svg width="24" height="24" viewBox="0 0 24 24" fill="none" xmlns="http://www.w3.org/2000/svg">
<path d="M9.79688 18.1875L5.15625 21.8438C5.95312 22.5938 7.40625 23.5312 8.4375 23.9062C8.57812 24 8.8125 24 9 24C9.79688 24 10.5 23.3438 10.5 22.5C10.5 22.4531 10.4531 22.3594 10.4531 22.2656L9.79688 18.1875ZM23.8594 8.48438C23.4844 7.45312 22.5469 6 21.7969 5.15625L18.1406 9.84375L22.2188 10.5C22.3125 10.5 22.4062 10.5 22.4531 10.5H22.5C23.2969 10.5 23.9531 9.84375 23.9531 9C23.9531 8.85938 23.9531 8.625 23.8594 8.48438ZM10.9688 1.07812C10.8281 0.515625 10.1719 0.046875 9.5625 0.046875C9.46875 0.046875 9.28125 0.046875 9.1875 0.046875C5.15625 1.07812 1.03125 5.20312 0.046875 9.23438C0 9.32812 0 9.51562 0 9.60938C0 10.2188 0.46875 10.875 1.03125 11.0156L10.7812 14.0156C10.9219 14.0625 11.1094 14.1094 11.2031 14.1094C11.5781 14.1094 12.0469 13.9219 12.2812 13.6406L13.5938 12.3281C13.875 12.0938 14.0625 11.625 14.0625 11.25C14.0625 11.1562 14.0156 10.9688 13.9688 10.8281L10.9688 1.07812ZM20.9531 3.09375C20.9062 2.76562 20.6719 2.29688 20.3906 2.10938C18.8906 0.9375 16.125 0.046875 14.25 0C13.6875 0.046875 12.7969 0.140625 12.2344 0.234375C12.2812 0.375 12.375 0.46875 12.4219 0.65625L15.4219 10.4062C15.7031 10.3125 15.9844 10.1719 16.1719 9.9375L20.6719 4.21875C20.8125 3.98438 21 3.5625 21 3.28125C21 3.23438 20.9531 3.14062 20.9531 3.09375ZM10.3594 15.4688L0.609375 12.4688C0.46875 12.4219 0.28125 12.375 0.1875 12.2812C0.09375 12.8438 0 13.7812 0 14.3438C0 16.2188 0.890625 18.9375 2.0625 20.4375C2.25 20.7188 2.71875 20.9531 3.04688 21C3.09375 21 3.1875 21 3.23438 21C3.51562 21 3.9375 20.8594 4.17188 20.7188L9.89062 16.2188C10.125 16.0312 10.2656 15.75 10.3594 15.4688Z" fill="#4F4F4F"/>
</svg>
