<svg width="28" height="16" viewBox="0 0 28 16" fill="none" xmlns="http://www.w3.org/2000/svg">
<path d="M15.8281 0.5C11.6094 0.5 7.90625 3.07812 5.84375 5.28125L1.76562 2.1875C1.20312 1.76562 0.359375 2.23438 0.5 2.89062L1.625 8L0.5 13.1562C0.359375 13.8125 1.20312 14.2812 1.76562 13.8594L5.84375 10.7656C7.90625 12.9688 11.6094 15.5 15.8281 15.5C22.25 15.5 27.5 9.5 27.5 8C27.5 6.5 22.25 0.5 15.8281 0.5ZM19.9062 9.125C19.2969 9.125 18.7812 8.65625 18.7812 8C18.7812 7.39062 19.2969 6.875 19.9062 6.875C20.5156 6.875 21.0312 7.39062 21.0312 8C21.0312 8.65625 20.5156 9.125 19.9062 9.125Z" fill="#4F4F4F"/>
</svg>
