<svg width="24" height="24" viewBox="0 0 24 24" fill="none" xmlns="http://www.w3.org/2000/svg">
<path d="M15.4688 12.375V8.15625L12.9844 7.03125C10.2656 10.2656 9.23438 18.75 2.625 18.75C1.17188 18.75 0 19.9688 0 21.375C0 22.8281 1.17188 24 2.625 24C12.5625 24 19.9688 18.2812 22.2656 14.1562L20.5312 12.375H15.4688ZM21.6094 6.32812C23.1094 3.51562 22.3594 1.26562 21.4688 0.140625C21.4219 0.09375 21.2812 0.046875 21.1875 0.046875C21.0938 0.046875 20.9531 0.09375 20.9062 0.140625L19.8281 1.21875C19.7812 1.26562 19.7344 1.40625 19.7344 1.5C19.7344 1.54688 19.7812 1.64062 19.7812 1.6875C20.1094 2.15625 20.5781 3.32812 19.7344 5.0625C19.0312 4.78125 17.8125 4.54688 17.0625 4.5C15.75 4.5 14.5312 4.92188 13.5 5.57812L16.9688 7.17188V10.875H21.1406L23.7188 13.5C23.8594 12.9375 24 12.3281 24 11.6719C24 9.9375 22.9219 7.54688 21.6094 6.32812Z" fill="#4F4F4F"/>
</svg>
