<svg width="28" height="18" viewBox="0 0 28 18" fill="none" xmlns="http://www.w3.org/2000/svg">
<path d="M21.9688 11.25C21.5 11.5781 20.2812 12.75 17.9844 12.75C15.6875 12.75 14.4688 11.5781 14 11.25C13.625 11.4844 12.3594 12.75 9.96875 12.75C7.67188 12.75 6.45312 11.5781 5.98438 11.25C5.60938 11.5312 4.71875 12.3281 3.17188 12.6562L4.625 17.0156C4.8125 17.5781 5.46875 18 6.07812 18H21.875C22.4844 18 23.1406 17.5781 23.3281 17.0156L24.7812 12.6562C23.2344 12.3281 22.2969 11.4844 21.9688 11.2969V11.25ZM26 8.25C25.6719 8.25 25.4844 8.20312 25.2969 8.10938C23.6562 3.42188 19.25 0 14 0C8.70312 0 4.29688 3.42188 2.65625 8.10938C2.46875 8.20312 2.28125 8.25 2 8.25C1.15625 8.25 0.5 8.95312 0.5 9.75C0.5 10.5938 1.15625 11.25 2 11.25C3.5 11.25 4.34375 10.6406 4.85938 10.2188C5.32812 9.89062 5.46875 9.75 5.98438 9.75C6.5 9.75 6.64062 9.89062 7.10938 10.2188C7.625 10.6406 8.46875 11.25 9.96875 11.25C11.4688 11.25 12.3125 10.6406 12.875 10.2188C13.2969 9.89062 13.4844 9.75 14 9.75C14.4688 9.75 14.6562 9.89062 15.0781 10.2188C15.6406 10.6406 16.4844 11.25 17.9844 11.25C19.4844 11.25 20.3281 10.6406 20.8906 10.2188C21.3125 9.89062 21.5 9.75 21.9688 9.75C22.4844 9.75 22.6719 9.89062 23.0938 10.2188C23.6562 10.6406 24.5 11.25 26 11.25C26.7969 11.25 27.5 10.5938 27.5 9.75C27.5 8.95312 26.7969 8.25 26 8.25ZM10.1562 4.125L9.40625 5.625C8.9375 6.46875 7.625 5.8125 8.04688 4.92188L8.79688 3.42188C9.26562 2.53125 10.5781 3.23438 10.1562 4.125ZM14.75 5.25C14.75 6.28125 13.25 6.28125 13.25 5.25V3.75C13.25 2.76562 14.75 2.76562 14.75 3.75V5.25ZM18.5469 5.625L17.7969 4.125C17.375 3.23438 18.6875 2.53125 19.1562 3.42188L19.9062 4.92188C20.3281 5.8125 19.0156 6.46875 18.5469 5.625Z" fill="#4F4F4F"/>
</svg>
