<svg width="28" height="25" viewBox="0 0 28 25" fill="none" xmlns="http://www.w3.org/2000/svg">
<path d="M19.3906 18.9375C15.5469 22.7344 9.3125 22.7344 5.51562 18.7969C1.90625 15.0938 1.90625 8.95312 5.51562 5.25C9.3125 1.3125 15.5469 1.3125 19.3906 5.10938L20.4219 4.07812C20.7031 3.79688 20.7031 3.28125 20.375 3C15.0781 -1.64062 6.6875 -0.84375 2.46875 5.39062C-0.203125 9.375 -0.203125 14.6719 2.46875 18.6562C6.6875 24.8906 15.0781 25.6875 20.375 21.0469C20.7031 20.7656 20.7031 20.25 20.4219 19.9688L19.3906 18.9375ZM6.64062 17.8594C8 19.1719 10.625 20.25 12.5 20.25C14.375 20.25 17 19.1719 18.3125 17.8594L12.5 12L18.3125 6.1875C17 4.875 14.375 3.79688 12.5 3.79688C10.625 3.79688 8 4.875 6.64062 6.1875C3.45312 9.42188 3.45312 14.625 6.64062 17.8594ZM12.5 16.5C12.9219 16.5 13.25 16.875 13.25 17.25C13.25 17.6719 12.9219 18 12.5 18C12.0781 18 11.75 17.6719 11.75 17.25C11.75 16.875 12.0781 16.5 12.5 16.5ZM10.25 6.75C10.6719 6.75 11 7.125 11 7.5C11 7.92188 10.6719 8.25 10.25 8.25C9.82812 8.25 9.5 7.92188 9.5 7.5C9.5 7.125 9.82812 6.75 10.25 6.75ZM8 11.25C8.42188 11.25 8.75 11.625 8.75 12C8.75 12.4219 8.42188 12.75 8 12.75C7.57812 12.75 7.25 12.4219 7.25 12C7.25 11.625 7.57812 11.25 8 11.25ZM25.0156 4.73438C24.7344 4.35938 24.2188 4.35938 23.8906 4.64062L22.8594 5.67188C26 9.32812 26 14.7188 22.8594 18.375L23.8906 19.4062C24.2188 19.6875 24.7344 19.6875 25.0156 19.3125C26.375 17.5312 27.5 14.25 27.5 12C27.5 9.79688 26.375 6.51562 25.0156 4.73438ZM21.8281 6.75L19.4844 9.09375C19.7656 9.1875 20 9.46875 20 9.79688C20 10.1719 19.625 10.5469 19.25 10.5469C18.9219 10.5469 18.6406 10.3125 18.5469 10.0312L16.5312 12L21.8281 17.2969C22.8594 16.0312 23.75 13.6875 23.75 12.0469C23.75 10.3594 22.8594 8.01562 21.8281 6.75ZM21.5 13.5C21.0781 13.5 20.75 13.1719 20.75 12.75C20.75 12.375 21.0781 12 21.5 12C21.875 12 22.25 12.375 22.25 12.75C22.25 13.1719 21.875 13.5 21.5 13.5Z" fill="#4F4F4F"/>
</svg>
