<svg width="25" height="24" viewBox="0 0 25 24" fill="none" xmlns="http://www.w3.org/2000/svg">
<path d="M5.5 12H8.92188L4.84375 7.92188C4.79688 7.875 4.75 7.78125 4.75 7.6875C4.75 7.59375 4.79688 7.45312 4.84375 7.40625L5.35938 6.89062C5.40625 6.84375 5.54688 6.79688 5.64062 6.79688C5.73438 6.79688 5.82812 6.84375 5.92188 6.89062L10.75 11.7188V4.875C10.75 4.6875 10.8906 4.5 11.125 4.5H11.875C12.0625 4.5 12.25 4.6875 12.25 4.875V12H14.6875C14.5938 11.625 14.5 10.9219 14.5 10.5C14.5 7.21875 17.1719 4.54688 20.5 4.5C20.5938 4.5 20.7344 4.54688 20.8281 4.54688C20.0312 3.60938 18.8125 3 17.5 3C17.125 3.04688 16.6094 3.09375 16.2812 3.1875C15.5312 1.45312 13.375 0 11.5 0C9.57812 0 7.42188 1.45312 6.67188 3.1875C6.34375 3.09375 5.82812 3.04688 5.5 3C3.01562 3 1 5.0625 1 7.5C1 9.98438 3.01562 12 5.5 12ZM16 10.5C16 10.9688 16.0938 11.625 16.2344 12H24.2031C24.3438 12.0469 24.5312 12.0469 24.6719 12.0938C24.8594 11.6719 24.9531 10.9688 24.9531 10.5C24.9531 8.01562 22.9375 6 20.4531 6C17.9688 6 16 8.01562 16 10.5ZM24.2031 13.5H1.75C1.32812 13.5 0.953125 13.875 1 14.2969C1.28125 17.9062 3.71875 20.8594 7 21.9844V22.5C7 23.3438 7.65625 24 8.5 24H17.5C18.2969 24 19 23.3438 19 22.5V21.9844C22.2344 20.8125 24.625 17.8594 24.9531 14.2969C25 13.875 24.625 13.5 24.2031 13.5Z" fill="#4F4F4F"/>
</svg>
