<svg width="28" height="25" viewBox="0 0 28 25" fill="none" xmlns="http://www.w3.org/2000/svg">
<path d="M17.75 4.5C16.4844 4.5 15.3125 5.625 14.8438 7.35938C14.5156 8.34375 13.5781 12.3281 6.73438 15.3281C0.21875 18.1406 14.4219 23.25 21.7812 14.8594C23.5625 12.8438 23.3281 8.95312 21.2188 6.5625C20.0469 5.25 18.8281 4.5 17.75 4.5ZM18.5 12C17.6562 12 17 11.3438 17 10.5C17 9.70312 17.6562 9 18.5 9C19.2969 9 20 9.70312 20 10.5C20 11.3438 19.2969 12 18.5 12ZM24.5938 3.60938C22.3906 1.125 20 0 17.75 0C14.4688 0 11.6094 2.4375 10.5312 6.09375C8.23438 12.6562 0.546875 9.98438 0.5 16.5C0.40625 22.2188 7.01562 24.2344 12.5 24C16.5781 23.8594 21.2656 22.2656 25.1562 17.8125C28.4375 14.0625 28.2031 7.6875 24.5938 3.60938ZM22.9062 15.8438C19.3438 19.9219 15.2188 20.9062 12.3594 21C10.5781 21.0938 6.21875 20.7188 4.34375 18.8438C4.20312 18.7031 1.53125 15.9375 6.125 13.9219C9.45312 12.4688 12.3125 10.5938 13.3906 6.9375C14.0938 4.54688 15.8281 3 17.75 3C19.2969 3 20.8906 3.89062 22.3438 5.57812C24.9688 8.53125 25.2031 13.2188 22.9062 15.8438Z" fill="#4F4F4F"/>
</svg>
