<svg width="25" height="22" viewBox="0 0 25 22" fill="none" xmlns="http://www.w3.org/2000/svg">
<path d="M13 8C6.85938 8 1.84375 13.0625 1 19.625C0.859375 20.6094 1.60938 21.5 2.5 21.5H23.4531C24.3906 21.5 25.0938 20.6094 24.9531 19.625C24.1094 13.0625 19.0938 8 13 8ZM6.25 18.5C5.82812 18.5 5.5 18.1719 5.5 17.75C5.5 17.375 5.82812 17 6.25 17C6.625 17 7 17.375 7 17.75C7 18.1719 6.625 18.5 6.25 18.5ZM9.25 15.5C8.82812 15.5 8.5 15.1719 8.5 14.75C8.5 14.375 8.82812 14 9.25 14C9.625 14 10 14.375 10 14.75C10 15.1719 9.625 15.5 9.25 15.5ZM1.32812 12.125C1.42188 12.5 1.51562 13.0625 1.51562 13.4375C4 9.26562 8.21875 6.5 13 6.5C17.7344 6.5 22 9.26562 24.4375 13.4375C24.4375 13.0625 24.5312 12.5 24.625 12.125C24.8594 11.2812 25.1406 10.3906 24.8125 9.54688C24.4844 8.65625 23.6875 8.14062 22.9375 7.71875C22.5156 7.48438 22.0469 7.20312 21.8125 6.92188C21.625 6.59375 21.4844 6.03125 21.3906 5.51562C21.2031 4.67188 20.9688 3.6875 20.2656 3.125C19.5156 2.5625 18.5781 2.60938 17.7344 2.65625C17.2188 2.70312 16.7031 2.75 16.375 2.60938C16.0469 2.51562 15.6719 2.14062 15.2969 1.8125C13.9375 0.546875 12.9062 -0.296875 10.6562 1.8125C10.2812 2.14062 9.90625 2.51562 9.57812 2.60938C9.25 2.75 8.73438 2.70312 8.21875 2.65625C7.375 2.60938 6.4375 2.5625 5.6875 3.125C4.98438 3.6875 4.75 4.67188 4.60938 5.51562C4.46875 6.03125 4.32812 6.59375 4.14062 6.92188C3.90625 7.20312 3.4375 7.48438 3.01562 7.71875C2.26562 8.14062 1.46875 8.65625 1.14062 9.54688C0.8125 10.3906 1.09375 11.2812 1.32812 12.125Z" fill="#4F4F4F"/>
</svg>
